<svg width="64" height="64" viewBox="0 0 64 64" fill="none" xmlns="http://www.w3.org/2000/svg">
  <!-- Fondo del icono -->
  <rect width="64" height="64" rx="8" fill="#4CAF50"/>
  
  <!-- Documento/Formulario -->
  <rect x="16" y="12" width="32" height="40" rx="2" fill="#FFFFFF"/>
  
  <!-- Líneas del formulario -->
  <rect x="20" y="18" width="16" height="2" fill="#4CAF50"/>
  <rect x="20" y="24" width="20" height="2" fill="#E0E0E0"/>
  <rect x="20" y="30" width="18" height="2" fill="#E0E0E0"/>
  <rect x="20" y="36" width="22" height="2" fill="#E0E0E0"/>
  <rect x="20" y="42" width="16" height="2" fill="#E0E0E0"/>
  
  <!-- Lápiz/Pluma -->
  <path d="M40 20 L44 16 L46 18 L42 22 Z" fill="#FF9800"/>
  <path d="M40 20 L38 24 L42 22 Z" fill="#FF9800"/>
  <rect x="44" y="14" width="2" height="2" fill="#FFB74D"/>
  
  <!-- Checkbox marcado -->
  <rect x="20" y="47" width="4" height="4" rx="1" fill="#4CAF50"/>
  <path d="M21 49 L22.5 50.5 L25 47.5" stroke="#FFFFFF" stroke-width="1" fill="none"/>
  
  <!-- Signo de más (añadir) -->
  <circle cx="52" cy="52" r="6" fill="#FF5722"/>
  <rect x="49" y="51" width="6" height="2" fill="#FFFFFF"/>
  <rect x="51" y="49" width="2" height="6" fill="#FFFFFF"/>
</svg>